<svg width="400" height="106" viewBox="0 0 400 106" fill="none" xmlns="http://www.w3.org/2000/svg">
<g clip-path="url(#clip0_4275_7478)">
<path d="M355.06 105.82C365.76 105.82 371.05 101 376.34 88.18L398.33 35.39C398.68 34.57 399.15 32.57 399.15 31.16C399.15 26.46 395.27 22.93 390.68 22.93C386.09 22.93 383.51 25.99 382.1 29.75L368.93 66.32L355.29 29.64C353.76 25.41 351.17 22.94 346.71 22.94C341.77 22.94 337.89 26.47 337.89 31.52C337.89 32.7 338.36 34.46 338.83 35.64L360.35 85.49L359.76 86.9C358.11 90.07 356.59 90.66 353.41 90.66C352.12 90.66 351.18 90.42 349.65 89.95C348.94 89.72 348.12 89.48 346.71 89.48C343.07 89.48 339.66 92.42 339.66 96.77C339.66 101.12 342.72 103.24 345.3 104.18C348.24 105.24 351.06 105.83 355.06 105.83" fill="#7065EE"/>
<path d="M273.32 79.83C273.32 84.3 276.96 87.59 281.67 87.59C284.84 87.59 287.31 85.59 289.43 83L302.13 66.3L314.83 83C317.18 85.94 319.65 87.59 323.18 87.59C327.65 87.59 331.41 84.42 331.41 79.36C331.41 77.01 330.47 74.89 328.47 72.54L312.71 54.43L327.99 36.56C329.4 34.8 330.46 32.92 330.46 30.45C330.46 25.98 326.82 22.69 322.11 22.69C318.94 22.69 316.47 24.69 314.35 27.28L302.47 42.8L290.83 27.28C288.48 24.34 286.01 22.69 282.48 22.69C278.01 22.69 274.25 25.86 274.25 30.92C274.25 33.27 275.19 35.39 277.19 37.74L291.89 54.67L275.78 73.72C274.25 75.48 273.31 77.36 273.31 79.83H273.32Z" fill="#7065EE"/>
<path d="M266.69 52.79C266.69 39.74 257.4 22.46 236.36 22.46C218.02 22.46 205.2 37.27 205.2 55.26V55.49C205.2 74.77 219.19 88.06 238.12 88.06C247.29 88.06 254.46 85.12 259.99 80.42C261.28 79.24 262.34 77.48 262.34 75.13C262.34 71.13 259.4 68.08 255.4 68.08C253.52 68.08 252.34 68.55 251.05 69.49C247.41 72.19 243.29 73.72 238.35 73.72C230.36 73.72 224.71 69.49 222.95 61.37H258.34C263.04 61.37 266.69 57.96 266.69 52.79ZM222.72 50.2C224.13 42.09 228.95 36.8 236.36 36.8C243.77 36.8 248.59 42.21 249.65 50.2H222.73H222.72Z" fill="#7065EE"/>
<path d="M179.83 78.42C179.83 83.36 183.83 87.36 188.77 87.36C193.71 87.36 197.71 83.36 197.71 78.42V9.05C197.71 4.11 193.71 0.110001 188.77 0.110001C183.83 0.110001 179.83 4.11 179.83 9.05V78.42Z" fill="#7065EE"/>
<path d="M139.9 78.42C139.9 83.36 143.9 87.36 148.84 87.36C153.78 87.36 157.78 83.36 157.78 78.42V38.91H165.31C169.43 38.91 172.72 35.74 172.72 31.62C172.72 27.5 169.43 24.33 165.31 24.33H157.55V21.86C157.55 17.16 159.9 15.04 164.02 15.04H165.55C169.55 15.04 172.84 11.63 172.84 7.63001C172.84 3.63001 169.78 0.930005 166.73 0.460005C164.73 0.110005 162.26 -0.00999451 159.44 -0.00999451C153.09 -0.00999451 148.27 1.64001 144.98 4.93001C141.69 8.22001 139.92 13.28 139.92 20.21V24.21H139.21C135.09 24.21 131.8 27.5 131.8 31.62C131.8 35.74 135.09 38.91 139.21 38.91H139.92V78.42H139.9Z" fill="#7065EE"/>
<path fill-rule="evenodd" clip-rule="evenodd" d="M103.08 48.88L58.42 9.73C55.26 6.96 50.53 6.96 47.37 9.73L2.62 48.88C-0.539996 51.65 -0.889995 56.44 1.83 59.63C4.58 62.86 9.44 63.24 12.66 60.48L51.21 27.48C52.18 26.65 53.61 26.65 54.57 27.48L93.02 60.47C96.24 63.24 101.1 62.86 103.86 59.62C106.58 56.43 106.24 51.64 103.08 48.87V48.88Z" fill="#7065EE"/>
<path d="M72.53 56.39C71.03 56.52 69.74 57.26 68.85 58.33C63.57 64.58 58.19 67.79 52.84 67.89C47.5 67.79 42.11 64.57 36.83 58.33C35.95 57.25 34.65 56.52 33.15 56.39C30.19 56.13 27.57 58.31 27.31 61.27C27.17 62.78 27.68 64.21 28.61 65.27C36.04 74.06 44.17 78.39 52.81 78.64C52.81 78.64 52.83 78.64 52.84 78.64C52.85 78.64 52.86 78.64 52.87 78.64C61.51 78.39 69.64 74.06 77.07 65.27C77.99 64.2 78.5 62.78 78.37 61.27C78.11 58.31 75.49 56.12 72.53 56.39Z" fill="#7065EE"/>
</g>
<defs>
<clipPath id="clip0_4275_7478">
<rect width="399.15" height="105.82" fill="white"/>
</clipPath>
</defs>
</svg>
